<?xml version="1.0" encoding="UTF-8"?>
<!-- Created with Inkscape (http://www.inkscape.org/) -->
<svg id="svg2621" width="250" height="77" version="1.1" viewBox="0 0 337.5 103.95" xmlns="http://www.w3.org/2000/svg" xmlns:cc="http://creativecommons.org/ns#" xmlns:dc="http://purl.org/dc/elements/1.1/" xmlns:rdf="http://www.w3.org/1999/02/22-rdf-syntax-ns#">
 <metadata id="metadata2627">
  <rdf:RDF>
   <cc:Work rdf:about="">
    <dc:format>image/svg+xml</dc:format>
    <dc:type rdf:resource="http://purl.org/dc/dcmitype/StillImage"/>
    <dc:title/>
   </cc:Work>
  </rdf:RDF>
 </metadata>
 <g id="g2647" transform="translate(-64.631 .16435)" stroke-width="1.3333">
  <path id="path2659" d="m257.33 101.15c-5.5-0.46617-15.595-1.0288-22.433-1.2503-14.16-0.45863-16.234-1.8467-16.234-10.865 0-3.9319-0.51826-5.0367-2.3629-5.0367-1.2996 0-4.5996-1.8437-7.3333-4.0971-5.5504-4.5751-6.3006-8.3885-2.6371-13.405 1.2833-1.7573 2.9333-4.1614 3.6667-5.3423 6.4386-10.369 15.257-20.951 30.753-36.906 10.02-10.316 19.083-19.992 20.141-21.503 2.6708-3.813 4.111-3.4452 6.2146 1.5871 2.1172 5.0651 5.5211 8.2587 7.4994 7.0361 3.2288-1.9955 3.7979 1.0172 1.2952 6.8559l-2.635 6.1472 7.721 8.1471c14.613 15.42 33.677 39.123 33.677 41.873 0 3.0667-5.8195 8.2743-9.2465 8.2743-1.2211 0-2.9402-0.72-3.8202-1.6-1.2444-1.2444-1.9558-1.2442-3.2009 8.7e-4 -1.2456 1.2456-1.2154 2.6669 0.13611 6.4044 1.7008 4.7036 1.6301 4.9135-3.3991 10.086l-5.1361 5.2822-11.333-0.41995c-6.2333-0.23098-15.833-0.80137-21.333-1.2676zm-20.416-24.599c7.0292-1.6354 14.7-2.0122 33.929-1.6667l24.847 0.44648-5.1518-6c-2.8335-3.3-9.6222-10.8-15.086-16.667l-9.9342-10.667-3.7606 4.1743c-2.0683 2.2959-10.661 10.03-19.094 17.187-19.338 16.411-18.156 15.305-16.349 15.305 0.8345 0 5.6045-0.95092 10.6-2.1131zm-147.46 12.541c-15.339-5.8906-23.734-19.676-22.495-36.939 1.0402-14.49 7.6803-24.38 20.366-30.333 5.4832-2.5734 8.7969-3.1208 18.667-3.0838 10.792 0.04051 22.838 1.4367 23.808 2.7595 0.20278 0.27648-5e-3 4.4027-0.46203 9.1694-0.57529 6.0018-1.1374 7.8467-1.828 6-3.9566-10.58-7.7564-12.99-21.682-13.754-17.471-0.95804-27.526 6.8628-29.733 23.127-3.4097 25.127 14.867 44.677 38.459 41.139 6.774-1.0158 13.438-6.5091 13.438-11.077 0-1.5231 0.88676-2.2067 1.665-2.2067 1.5538 0 0.15576 10.502-1.7881 14.261-2.4675 4.7715-26.879 5.3671-38.415 0.93716zm281.65-18.094c-10.886-11.55-22.938-24.57-26.783-28.933l-6.9908-7.9328v16.065c0 8.8357 0.39383 20.724 0.87516 26.418 0.84257 9.9675 1.0288 10.42 5 12.149 3.8824 1.6902 3.4588 1.7977-7.2085 1.8283-9.9917 0.02868-10.939-0.16701-8-1.6531l3.3333-1.6857 0.35584-34.295c0.19572-18.862 0.85981-34.295 1.4758-34.295 1.0468 0 7.6989 6.9896 40.934 43.011l13.235 14.344 0.39268-22.344c0.49785-28.328 0.1148-30.592-5.4487-32.2-3.4941-1.0102-2.202-1.2551 7.056-1.3373 9.9664-0.08847 10.931 0.10272 8 1.5851l-3.3333 1.6857-0.35584 34.295c-0.19762 19.046-0.88684 34.295-1.55 34.295-0.65681 0-10.101-9.45-20.987-21zm-214.07 17.591c2.9221-2.0467 2.9634-2.5206 2.9634-34.033v-31.958l-3.9784-0.79567c-8.4712-1.6942-2.183-2.4428 15.158-1.8043l16.955 1.401 5.5089 3.6246c3.9363 3.9385 4.3566 5.1188 4.3566 12.236 0 12.416-7.1726 20.086-19.567 20.925-3.9046 0.26422-6.1993 0.14159-5.0993-0.2725s4.5628-1.6686 7.6951-2.7877c6.5794-2.3508 9.6408-7.0307 9.6333-14.726-9e-3 -9.5445-8.7101-18.447-17.084-17.48l-3.5781 0.41335-0.35832 31.167c-0.37444 32.569-0.12947 34.151 5.4551 35.238 1.5968 0.31083-2.4803 0.64685-9.0602 0.74671-11.182 0.16972-11.77 0.04608-9-1.894z" fill="#cecece"/>
  <path id="path2657" d="m248.15 100.7c-28.923-1.7564-29.487-1.9786-29.487-11.626 0-3.972-0.51484-5.0785-2.3629-5.0785-3.6282 0-12.304-7.7835-12.304-11.039 0-1.9048 6.5368-9.25 19.789-22.236 16.999-16.658 21.088-21.511 29-34.424 6.0988-9.9535 9.8867-14.882 11.211-14.587 1.1 0.24482 1.8738 1.0881 1.7196 1.8739-0.15422 0.7858 0.89578 2.4932 2.3333 3.7941 1.4376 1.301 2.6137 3.2402 2.6137 4.3094s-2.9747 7.2209-6.6104 13.67c-6.4663 11.471-10.429 21.969-6.4804 17.169 0.96663-1.1751 4.7575-8.4871 8.4242-16.249 6.1135-12.942 9.1113-16.948 11.154-14.905 0.42462 0.42462-0.23307 3.5671-1.4615 6.9834l-2.2336 6.2113 7.6259 8.048c14.537 15.342 33.582 39.032 33.582 41.774 0 3.0667-5.8195 8.2743-9.2465 8.2743-1.2211 0-2.9402-0.72-3.8202-1.6-1.2444-1.2444-1.9558-1.2442-3.2009 8.7e-4 -1.2456 1.2456-1.2154 2.6669 0.13611 6.4044 1.6994 4.6996 1.6272 4.9159-3.3364 9.9991-5.8963 6.0384-3.532 5.8759-47.046 3.2334zm-10.417-24.222c7.758-1.7657 14.257-2.0481 33.921-1.4744 18.066 0.52709 24.09 0.31716 23.412-0.81589-0.50216-0.83908-7.4828-8.539-15.512-17.111l-14.599-15.585-2.8124 3.8723c-1.5468 2.1298-10.012 9.9713-18.812 17.426s-16.57 14.075-17.267 14.713c-1.8459 1.6901 0.74108 1.463 11.67-1.0244zm-148.27 12.612c-15.424-5.9231-23.881-20.114-22.469-37.704 1.0519-13.104 7.5206-23.048 18.99-29.191 4.5855-2.4561 7.5439-2.866 20.684-2.866 8.4333 0 16.983 0.46143 19 1.0254 3.5217 0.98486 3.6667 1.3702 3.6667 9.7454 0 5.4738 0.36543 9.9821-0.47154 9.4648 0.0842-0.93936-1.6272-3.7617-1.7974-5.4152-1.3037-12.669-34.094-15.881-44.68-3.9599-7.1084 8.0052-8.8356 25.613-3.6865 37.583 5.7464 13.358 20.373 21.518 34.971 19.511 7.19-0.98888 14.331-6.23 14.331-10.518 0-1.1564 0.60709-2.1026 1.3491-2.1026 1.4735 0 0.39294 9.8192-1.4845 13.491-2.44 4.7712-26.866 5.3673-38.402 0.93716zm281.68-18.094c-10.893-11.55-22.956-24.57-26.806-28.933l-6.9999-7.9328 0.0147 21.266c0.0193 27.924 0.56978 31.063 5.8504 33.362 3.8968 1.6963 3.4822 1.8019-7.1984 1.8325-9.9917 0.02868-10.939-0.16701-8-1.6531l3.3333-1.6857 0.35584-34.295c0.19573-18.862 0.85982-34.295 1.4758-34.295 1.062 0 10.872 10.325 40.937 43.085l13.232 14.418 0.3794-23.751c0.20866-13.063 0.0511-25.086-0.35027-26.717-0.46797-1.9024-2.2778-3.4134-5.0461-4.2131-3.5518-1.026-2.3088-1.2646 7.0169-1.3474 9.9664-0.08847 10.931 0.10272 8 1.5851l-3.3333 1.6857-0.35584 34.295c-0.19572 18.862-0.88309 34.295-1.5275 34.295-0.64442 0-10.084-9.45-20.978-21zm-214.1 17.591c2.9221-2.0467 2.9634-2.5206 2.9634-34.033v-31.958l-4.0463-0.80926c-7.4005-1.4801-2.9332-2.0989 13.515-1.872 17.01 0.23464 20.886 1.2461 25.868 6.7514 3.795 4.1935 3.7455 17.018-0.0856 22.15-4.7207 6.3229-9.2681 8.8553-16.818 9.3662-3.9046 0.26422-6.1993 0.14159-5.0993-0.2725s4.5628-1.6686 7.6951-2.7877c6.5794-2.3508 9.6408-7.0307 9.6333-14.726-9e-3 -9.5445-8.7101-18.447-17.084-17.48l-3.5781 0.41335-0.35832 31.167c-0.37444 32.569-0.12947 34.151 5.4551 35.238 1.5968 0.31083-2.4803 0.64685-9.0602 0.74671-11.182 0.16972-11.77 0.04608-9-1.894z" fill="#959595"/>
  <path id="path2655" d="m250.76 100.65c-25.626-1.5269-27.387-1.8009-29.667-4.6161-1.3329-1.6461-2.4235-5.0264-2.4235-7.5118 0-2.9047-0.64296-4.519-1.7999-4.519-3.0687 0-12.867-7.8879-12.867-10.358 0-1.2879 9.013-11.334 20.029-22.325 16.698-16.66 21.481-22.364 28.76-34.296 9.1256-14.958 10.328-16.39 12.588-14.994 0.87211 0.53899 0.33504 2.6452-1.465 5.7454-2.7058 4.6602-2.7111 4.7349-0.11013 1.5611 2.6917-3.2845 2.7601-3.2946 4.6747-0.68882 1.7692 2.4079 1.4009 3.6604-4.1161 14-3.3325 6.2455-7.1792 13.23-8.5482 15.521-2.1616 3.6177-2.2337 4.3777-0.54838 5.7764 1.6334 1.3556 3.3382-1.1783 10.767-16.004 6.3964-12.765 9.2286-17.212 10.287-16.154 1.0583 1.0583 0.79356 2.9392-0.9616 6.8314l-2.422 5.3711 6.5633 7.0065c12.27 13.099 35.169 40.757 35.169 42.479 0 2.4897-6.7933 9.1941-9.3161 9.1941-1.1828 0-2.8451-0.69457-3.694-1.5435-1.1691-1.1691-2.025-1.1438-3.5288 0.10415-1.7535 1.4552-1.7303 2.1823 0.1982 6.2264l2.1835 4.5788-5.192 5.3171c-5.9863 6.1305-1.9828 5.8343-44.561 3.2973zm20.243-25.404c13.75 0.48685 25 0.50555 25 0.04155 0-0.464-6.15-7.4419-13.667-15.506-7.5167-8.0645-14.146-15.514-14.733-16.554-1.4494-2.5707-3.2634-2.3784-4.174 0.4423-0.4143 1.2833-9.1547 9.5212-19.423 18.306-10.268 8.7851-18.67 16.374-18.67 16.864 0 0.48995 4.65-0.31741 10.333-1.7941 9.3059-2.418 12.819-2.5969 35.333-1.7998zm-36.163-10.91c1.6585-2.1147 1.6113-2.1619-0.50341-0.50341-2.221 1.7418-2.9273 2.8367-1.8299 2.8367 0.27687 0 1.3269-1.05 2.3333-2.3333zm11.83-10.333c1.7223-1.8333 2.8315-3.3333 2.4648-3.3333-0.36666 0-2.0758 1.5-3.7982 3.3333-1.7223 1.8333-2.8315 3.3333-2.4648 3.3333s2.0758-1.5 3.7982-3.3333zm24.78-15.442c-4.2425-5.0419-4.5151-3.6191-0.44654 2.3308 1.65 2.413 3.2009 3.7972 3.4465 3.0762 0.2456-0.72104-1.1044-3.1542-3-5.407zm-21.604-4.8914c1.1676-2.6284 0.38865-2.045-5.2386 3.9235l-5.2706 5.5901 4.8844-3.9235c2.6864-2.1579 5.2176-4.6735 5.6248-5.5901zm6.8662-11.667c2.0515-3.6667 3.1111-6.0667 2.3545-5.3333-0.75654 0.73333-3.054 4.3333-5.1055 8-2.0515 3.6667-3.1111 6.0667-2.3545 5.3333 0.75654-0.73333 3.054-4.3333 5.1055-8zm-164.48 68.021c-11.722-3.6583-19.605-11.228-23.433-22.502-6.0418-17.796 1.4632-36.992 17.868-45.703 3.6931-1.9611 7.5875-2.4786 18.667-2.4802 7.7-0.0012 16.25 0.47505 19 1.0583l5 1.0604-0.10526 8.9396-0.10527 8.9396-1.98-5.589c-2.6772-7.5571-9.7559-11.078-22.273-11.078-19.823 0-29.131 9.3055-29.288 29.28-0.09445 12.036 3.2065 20.11 11.159 27.295 12.483 11.278 36.088 11.209 40.184-0.11679 1.6448-4.5487 4.4446-6.3605 3.2824-2.1242-0.35205 1.2833-1.0098 4.5307-1.4616 7.2163-0.66332 3.9425-1.6229 5.1623-4.9821 6.3333-5.6907 1.9838-24.491 1.6688-31.531-0.52836zm64.769-0.7295c2.9964-1.2044 3-1.2447 3-33.804v-32.599l-3.6667-1.3392c-2.837-1.0362-0.11213-1.363 12.043-1.4444 18.163-0.12171 23.511 1.4576 27.59 8.1478 3.4966 5.735 3.4094 11.111-0.29916 18.459-3.5201 6.9742-11.285 11.97-18.333 11.795l-4.6667-0.11587 5.0392-1.3372c2.7715-0.73548 6.8215-3.1196 9-5.2981 3.2863-3.2863 3.9608-5.0452 3.9608-10.328 0-11.03-7.6436-19.163-17.333-18.442l-4.6667 0.34724-0.41272 22.667c-0.22698 12.467-0.0261 27.013 0.44627 32.324 0.83845 9.427 0.95985 9.687 5.0794 10.88 3.3386 0.96664 1.7132 1.2294-7.7796 1.2577-8.4472 0.02516-11.112-0.32128-9-1.1701zm171-0.35009 3.3333-1.6857 0.35584-34.295c0.19572-18.862 0.82101-34.295 1.3896-34.295 0.92957 0 30.024 30.927 47.921 50.94l7 7.8274v-25.796c0-27.607-0.43556-29.613-6.6667-30.696-1.8333-0.31868 1.7667-0.60131 8-0.62808 6.4608-0.02775 9.9002 0.3497 8 0.87793l-3.3333 0.92659-0.35584 34.274c-0.28546 27.495-0.70748 34.274-2.1336 34.274-1.425 0-34.344-34.185-50.715-52.667l-3.5434-4 0.37391 25.464c0.39476 26.884 0.89837 29.125 6.8041 30.275 1.5967 0.31083-2.1968 0.638-8.4302 0.72706-9.943 0.14206-10.924-0.04487-8-1.5237z" fill="#6f6f6f"/>
  <path id="path2653" d="m277.33 101.84c-1.8333-0.23355-14.733-1.0348-28.667-1.7806-23.325-1.2485-25.518-1.5806-27.667-4.19-1.3497-1.6393-2.3333-5.0532-2.3333-8.0983 0-3.3647-0.50938-4.9495-1.4116-4.3919-1.9227 1.1883-11.636-5.7145-12.683-9.0132-0.67738-2.1343 3.3483-6.9104 20.381-24.181 17.331-17.572 22.655-23.917 29.018-34.575 8.1679-13.683 9.5489-15.313 11.38-13.429 0.61514 0.63277-3.0172 8.0505-8.0718 16.484-8.0203 13.381-11.541 17.625-27.654 33.333-10.155 9.9-15.125 14.965-11.044 11.255 6.1928-5.6295 20.702-19.125 29.308-27.26 1.1662-1.1024 5.6319-8.1524 9.9238-15.667 4.2919-7.5143 8.1238-13.662 8.5153-13.662 1.5894 0 4.0482 4.7519 3.1027 5.9962-3.817 5.0232-16.075 30.527-14.993 31.195 0.72587 0.44861-7.6497 8.7641-18.612 18.479-10.963 9.7147-19.458 17.64-18.878 17.612 0.57963-0.02817 4.0539-2.7595 7.7205-6.0697 3.6667-3.3101 12.538-11.138 19.714-17.396 12.81-11.17 13.207-11.695 21.762-28.768 5.6901-11.355 9.1678-16.937 10.021-16.084 0.85306 0.85305 0.54102 3.2195-0.89912 6.8187l-2.2056 5.5123 8.629 9.6859c16.254 18.244 32.978 38.661 32.978 40.257 0 0.87804-1.7887 3.3101-3.9749 5.4047-3.4936 3.347-4.3798 3.6238-7.3175 2.2852-2.8649-1.3053-7.3742-0.99785-7.3742 0.50286 0 0.26333 1.0146 2.6065 2.2547 5.207l2.2547 4.7282-5.192 5.3171c-5.3121 5.44-7.0807 5.8819-17.984 4.4929zm-38.407-25.332c5.9014-1.4598 13.105-1.6791 32.333-0.98451 13.607 0.49154 24.74 0.43662 24.74-0.12205 0-1.188-29.158-33.194-30.831-33.842-0.62215-0.24094-1.8062 0.95906-2.6313 2.6667-0.82505 1.7076-6.6837 7.4681-13.019 12.801-6.3355 5.333-14.819 12.687-18.852 16.342-8.1761 7.409-8.5023 7.2851 8.2598 3.1388zm33.403-37.253c-2.0145-2.5247-3.8527-4.0202-4.085-3.3235-0.59997 1.7998 5.2845 9.4361 6.6304 8.6043 0.61452-0.3798-0.5309-2.7562-2.5454-5.2809zm9.004-0.98662c0-0.21784-2.55-2.7678-5.6667-5.6667l-5.6667-5.2706 5.2706 5.6667c4.9016 5.2699 6.0627 6.2794 6.0627 5.2706zm-186 52.489c-27.948-6.7603-38.117-40.898-18.278-61.357 9.7115-10.016 23.18-12.862 43.836-9.2651l8.4426 1.4702-0.10526 8.8631-0.10527 8.8631-2.0544-5.8123c-1.7199-4.8659-3.0437-6.2499-8.1305-8.5-6.947-3.073-19.8-3.5967-27.325-1.1134-9.7496 3.2177-16.946 15.639-16.946 29.249 0 6.8526 3.9108 16.926 8.7799 22.614 7.343 8.5786 13.904 11.495 25.945 11.532 11.709 0.03597 16.546-2.2812 17.931-8.5906 1.3771-6.2701 3.1253-4.7694 1.889 1.6215-0.60293 3.1167-1.1224 6.3885-1.1543 7.2707-0.13285 3.6695-21.916 5.7699-32.725 3.1555zm61.47-1.3948c2.0795-0.84053 3.0258-2.7595 3.6667-7.4349 1.3279-9.6879 1.0237-53.336-0.3977-57.074-0.70458-1.8532-2.6177-3.5772-4.3333-3.9052-1.6895-0.32298 4.1282-0.66802 12.928-0.76674 18.891-0.21194 23.871 1.49 27.782 9.4944 6.2045 12.699-5.0358 29.101-19.782 28.866-3.4716-0.05519-3.1745-0.31759 2.2489-1.9865 8.384-2.5799 11.751-7.0442 11.751-15.58 0-11.711-7.1258-19.067-17.509-18.074l-4.4914 0.4296-0.35997 28.378c-0.41624 32.812 0.16124 36.59 5.7778 37.798 2.2069 0.47473-1.3208 0.87421-8.0845 0.91549-7.8292 0.04779-11.026-0.32053-9.1971-1.0597zm171.53-0.24774 3.6667-1.3392v-34.667c0-20.683 0.49778-34.487 1.234-34.222 0.67872 0.24444 10.37 10.344 21.535 22.444 27.043 29.305 33.315 36 33.729 36 1.0226 0-1.0103-52.917-2.0843-54.253-0.70118-0.87264-2.5813-1.8409-4.178-2.1518-1.5968-0.31082 1.8968-0.58704 7.7635-0.61381 6.2136-0.02835 9.2751 0.33816 7.3333 0.87793l-3.3333 0.92659-0.35584 34.274c-0.19572 18.851-0.82536 34.274-1.3992 34.274-1.259 0-30.337-29.544-44.619-45.333l-10.251-11.333-0.0209 22.833c-0.0263 28.584 0.37301 30.808 5.8134 32.385 3.2947 0.95523 1.7961 1.2109-7.1677 1.2227-9.1217 0.012-10.618-0.24634-7.6667-1.3242z" fill="#4d4d4d"/>
  <path id="path2651" d="m282 101.99c-0.73334-0.25698-14.217-1.1471-29.964-1.9781-15.747-0.83095-29.366-2.1211-30.265-2.8671-0.8988-0.74593-1.8151-4.1553-2.0362-7.5765-0.35882-5.5514-0.78521-6.2926-3.9657-6.8938-3.9823-0.75268-11.751-7.1258-11.804-9.6838-0.0189-0.91101 8.9066-10.356 19.835-20.99 17.383-16.914 21.074-21.294 29.501-35 8.759-14.246 12.032-18.129 12.032-14.275 0 3.0511-18.015 32.276-21.876 35.488-6.4554 5.3704-34.021 32.455-33.021 32.444 0.4932-0.0055 9.5611-8.1215 20.151-18.036 17.338-16.232 20.065-19.415 27.402-31.988 6.3316-10.85 8.504-13.606 9.7458-12.364 0.87892 0.87891 1.598 2.1041 1.598 2.7227 0 0.6186-3.6326 7.7808-8.0725 15.916-4.4399 8.1352-7.766 15.59-7.3913 16.567 0.41312 1.0766-6.7733 8.4032-18.261 18.617-10.418 9.2631-19.171 17.532-19.451 18.375-0.27984 0.84337 1.2202-0.0013 3.3333-1.877 2.1132-1.8757 11.642-10.332 21.175-18.793l17.333-15.382 8.6667-16.99c6.0977-11.954 8.7979-16.127 9.1093-14.081 0.24347 1.6-0.25476 4.5928-1.1072 6.6507-1.4886 3.5938-1.0141 4.3659 12.007 19.54 7.4563 8.6891 16.917 19.903 21.024 24.919 8.0486 9.8311 8.1439 10.886 1.4372 15.893-2.7534 2.0557-3.9004 2.2182-6.6888 0.94771-2.9548-1.3463-4.1208-1.0011-9.5534 2.8282-3.4034 2.3989-5.9315 4.618-5.6182 4.9313 0.31333 0.31333 2.3368-0.68856 4.4965-2.2264 4.2116-2.999 5.6964-2.343 7.4138 3.2754 0.64427 2.1077-0.41884 3.9412-4.4454 7.6667-4.782 4.4245-8.5728 5.6796-12.742 4.2187zm-45.333-24.456c9.1187-2.0933 14.217-2.3338 35.13-1.6573 13.455 0.43525 24.667 0.46056 24.915 0.05623 0.24824-0.40432-6.0336-7.6703-13.96-16.147-7.926-8.4763-15.123-16.545-15.992-17.932-1.3146-2.0947-1.707-2.1825-2.3249-0.52007-0.97326 2.6183-14.742 15.616-28.956 27.333-10.512 8.6659-12.993 11.347-10.479 11.324 0.55-0.0052 5.8-1.1113 11.667-2.458zm67.333 0.67402c0-0.25301-1.35-1.603-3-3l-3-2.54 2.54 3c2.387 2.8193 3.46 3.607 3.46 2.54zm-5.3333-6.6118c0-0.22281-2.25-2.4728-5-5l-5-4.5949 4.5949 5c4.2768 4.6539 5.4051 5.613 5.4051 4.5949zm-16.414-18.005c-3.4391-3.4916-6.2529-7.2505-6.2529-8.353 0-2.5752-7.4529-11.518-8.6348-10.361-1.5407 1.5081 18.956 27.025 20.554 25.589 0.32245-0.28969-2.2276-3.3835-5.6667-6.8751zm-2.388-17.257c-8.0815-8.619-12.247-11.492-5.4684-3.7707 4.36 4.9658 11.118 11.314 12.13 11.395 0.28971 0.02317-2.7081-3.4079-6.6618-7.6245zm-183.41 54.278c-12.231-2.4199-23.643-11.671-27.267-22.104-3.066-8.8273-2.2327-22.757 1.8345-30.667 8.1236-15.8 23.537-21.59 47.537-17.856l10.77 1.6754-0.10144 8.1703c-0.0999 8.046-0.12623 8.1018-1.7304 3.6676-2.2273-6.1565-6.233-9.0448-15.096-10.885-14.376-2.9845-27.907 2.0687-34.001 12.698-4.3474 7.5823-4.4064 25.453-0.1108 33.527 3.7967 7.1367 13.48 15.606 20.116 17.594 12.64 3.787 25.567 0.79712 29.034-6.7154l2.0233-4.3832-0.80155 6c-0.44085 3.3-1.2975 6.4966-1.9036 7.1036-3.1756 3.1802-19.352 4.341-30.303 2.1745zm60.352-1.2496c3.9834-1.6097 4.5226-5.9737 4.5226-36.607 0-28.162-0.42756-30.435-6-31.895-1.4667-0.38437 4.8333-0.56506 14-0.40152 18.383 0.32797 23.258 1.8402 26.707 8.2845 2.6409 4.9346 2.0742 14.347-1.1804 19.603-3.4067 5.5014-8.8603 8.7036-16.315 9.5796-5.2761 0.61999-5.417 0.57048-1.3753-0.48337 6.7495-1.7599 11.277-5.7262 13.403-11.743 1.7134-4.8476 1.6642-6.0266-0.48672-11.659-2.8985-7.5895-8.3461-11.361-16.42-11.368l-5.6667-0.004984v31.078c0 32.568 0.34956 34.664 6 35.988 1.4667 0.34346-2.4333 0.65605-8.6667 0.69463-7.4908 0.04637-10.38-0.31495-8.5226-1.0657zm171.19 0.11295 3.3333-0.92611 0.66667-34.277c0.36666-18.852 1.1341-34.292 1.7054-34.31 0.57133-0.0184 12.811 12.733 27.199 28.336 14.388 15.603 26.684 28.573 27.323 28.823 1.5569 0.60783-0.23302-52.001-1.8386-54.041-0.68709-0.87264-2.5557-1.8409-4.1524-2.1518-1.5968-0.31082 1.8968-0.58704 7.7635-0.61381 6.2133-0.02835 9.275 0.33817 7.3333 0.87788l-3.3333 0.92655-0.35726 33.231c-0.1965 18.277-0.85316 33.727-1.4593 34.333-1.1491 1.1491-30.502-28.561-45.517-46.07-4.7667-5.5586-9.0916-10.146-9.611-10.193-1.2541-0.11493 0.35909 49.093 1.7313 52.811 0.58816 1.5938 2.4517 3.1621 4.1412 3.4851 1.6895 0.32298-1.7282 0.60914-7.5948 0.63591-6.2098 0.02833-9.2739-0.33828-7.3333-0.87744z" fill="#2b2b2b"/>
  <path id="path2649" d="m254.95 100.13c-35.909-2.3715-34.894-2.0289-34.93-11.801-0.0175-4.8575-0.41941-5.6667-2.8146-5.6667-3.2952 0-9.997-4.4955-11.842-7.9439-1.0946-2.0452 1.8962-5.5854 19.091-22.598 17.75-17.563 21.583-22.148 29.617-35.432 5.0755-8.3926 9.7228-14.765 10.327-14.16 0.60447 0.60447-2.9879 7.9321-7.9831 16.284-8.2539 13.8-10.886 16.883-28.866 33.812-10.881 10.245-19.088 18.859-18.238 19.143s6.4666-4.1988 12.48-9.9608 14.906-14.224 19.761-18.805c6.3273-5.9694 10.967-12.107 16.38-21.667 4.1537-7.336 8.0828-13.338 8.7314-13.338 3.3407 0 2.041 4.0885-5.9981 18.868-5.5529 10.209-8.2898 16.54-7.3906 17.095 0.82579 0.51037-2.0857 3.9368-6.9047 8.126-20.666 17.965-31.801 28.257-31.21 28.848 0.97014 0.97013 3.8578-0.9985 11.154-7.6041 3.645-3.3 12.155-10.8 18.911-16.667 11.861-10.299 12.588-11.263 21.115-28 5.0251-9.8626 9.0448-16.366 9.3264-15.09 0.27218 1.2341-0.4965 4.161-1.7082 6.5041l-2.2031 4.2603 7.291 7.4959c4.0101 4.1227 13.673 15.172 21.472 24.553 12.343 14.846 13.996 17.404 12.749 19.733-2.1422 4.0028-7.532 6.1026-10.656 4.1516-2.1106-1.3181-3.4942-0.92209-8.4391 2.4152-3.7089 2.5031-6.8328 3.6934-8.3768 3.1917-1.8682-0.60704-2.0189-0.48402-0.6246 0.51003 1.0106 0.72052 1.4252 1.9771 0.92131 2.7924-1.593 2.5775 2.7185 1.6033 5.2412-1.1843 2.7656-3.056 5.4147-3.4484 6.3756-0.94438 0.36349 0.94726-1.7283 3.7281-4.6484 6.1798l-5.3094 4.4575-29.271-1.6735c-16.099-0.92042-29.543-1.4011-29.876-1.0681-0.63115 0.63114 46.574 3.7599 56.3 3.7316 3.0643-0.0089 6.383-0.76621 7.3748-1.6829 6.0642-5.6044 7.4867-5.9705 2.4428-0.62871-3.2693 3.4625-6.2693 6.2068-6.6667 6.0986-0.39731-0.10822-15.295-1.1592-33.106-2.3354zm1.3833-15.742c-1.65-0.3178-4.35-0.3178-6 0s-0.3 0.57782 3 0.57782 4.65-0.26002 3-0.57782zm-28-1.2754c-0.91667-0.36988-2.4167-0.36988-3.3333 0-0.91667 0.36988-0.16667 0.67252 1.6667 0.67252 1.8333 0 2.5833-0.30263 1.6667-0.67252zm66.298-4.3774 3.2983-2.5344-6.6317-7.3928c-3.6474-4.066-10.832-12.168-15.965-18.003-5.1333-5.8358-9.7679-10.655-10.299-10.71-0.53118-0.05455-1.8302 1.5508-2.8868 3.5675-1.0565 2.0167-10.065 10.567-20.02 19-9.9542 8.4333-18.105 15.665-18.113 16.07-8e-3 0.40498 8.5148 0.88449 18.94 1.0656 10.425 0.18109 19.225 0.59974 19.556 0.93034 0.3306 0.3306 6.9511 0.58775 14.712 0.57144 11.79-0.02477 14.654-0.44646 17.409-2.5641zm5.8121-5.9587c-3.5441-3.9705-10.545-11.745-15.557-17.277-5.0123-5.532-8.8212-10.533-8.4643-11.114 0.35696-0.5808-1.3579-3.4441-3.8108-6.3628-3.6613-4.3567-4.6137-4.9058-5.3192-3.0672-1.1485 2.9929 6.577 12.708 28.615 35.985 10.177 10.749 13.802 12.216 4.5367 1.8367zm6.3931-5.7809c-1.6982-3.1525-26.753-31.997-32.139-37-7.9142-7.3517-3.8238 0.03755 5.3098 9.5922 4.7711 4.991 12.775 13.724 17.787 19.408 9.1351 10.36 11.387 12.352 9.0423 8zm-216.6 21.61c-8.0841-2.9657-15.112-9.4033-19.048-17.449-8.8536-18.096-1.1297-40.937 16.493-48.774 6.1584-2.7384 20.119-3.437 34.008-1.7017 7.3818 0.9223 7.6679 1.1022 7.1096 4.4709-0.31991 1.9305-0.63099 4.306-0.69129 5.2789s-1.6013-0.0037-3.4244-2.1704c-3.6599-4.3495-11.512-6.9319-21.077-6.9319-18.064 0-28.901 11.644-28.929 31.083-0.0306 21.335 14.953 36.293 35.78 35.72 10.044-0.27632 12.745-1.4704 16.334-7.2208l2.6516-4.2482-0.84684 4c-1.6094 7.6019-2.0327 8.382-4.9765 9.1712-5.5958 1.5002-28.215 0.66805-33.384-1.2281zm69.926-1.6965c0.64295-1.6977 1.169-16.632 1.169-33.186 0-25.316-0.32032-30.335-2.0154-31.58-1.5335-1.1264 0.61836-1.4637 9-1.4106 19.007 0.12028 19.595 0.24347 24.482 5.1303 3.9116 3.9116 4.5326 5.4202 4.5283 11-3e-3 4.0985-0.97525 8.058-2.6545 10.812-2.5319 4.1527-9.8563 9.6984-12.674 9.5961-0.73334-0.02661 0.30912-0.93959 2.3166-2.0288 9.1686-4.9748 10.205-19.518 2.0148-28.261-3.2341-3.4524-11.888-6.1835-15.73-4.9642-2.4835 0.78824-2.6011 2.2638-2.6011 32.64 0 24.627 0.39896 32.214 1.7658 33.581 1.4655 1.4655 0.69986 1.7651-4.5023 1.7619-5.9997-0.0037-6.2181-0.1361-5.0992-3.0907zm170.93 1.245c1.0767-1.2951 1.7863-12.456 2.242-35.263l0.66667-33.368 27.179 29.57c14.948 16.263 27.493 29.57 27.877 29.57 0.95803 0-0.73042-52.267-1.7765-54.993-0.46192-1.2038-1.8388-2.3856-3.0597-2.6262-1.2209-0.24068 1.2314-0.49187 5.4496-0.5582 6.5416-0.10287 7.3258 0.13027 5.3333 1.5854-2.0865 1.5238-2.4072 5.299-3.0027 35.344l-0.66666 33.638-18.122-19.195c-9.9672-10.557-21.886-23.395-26.486-28.529-4.6-5.1333-8.9805-9.5618-9.7345-9.8411-1.6877-0.62511-1e-3 50.04 1.7758 53.361 0.98868 1.8474 0.33426 2.2856-4.0352 2.7023-4.3871 0.41838-4.9651 0.19646-3.64-1.3975zm-156.76-30.375c0.91667-0.36988 2.4167-0.36988 3.3333 0 0.91667 0.36988 0.16667 0.67252-1.6667 0.67252-1.8333 0-2.5833-0.30263-1.6667-0.67252z" fill="#030303"/>
 </g>
 <path id="path236" d="m192.9-1.3025c-0.50778-0.41114-1.2082-0.88754-1.8359-1.2488-0.25974-0.14948-0.88545-0.46762-1.1797-0.59981-2.0524-0.92206-4.643-1.5055-8.1875-1.8439-0.18047-0.01723-0.34922-0.03395-0.375-0.03715-0.12034-0.01495 0.20975-0.0079 0.96875 0.02066 0.45546 0.01715 1.598 0.05924 2.5391 0.09355 0.94101 0.0343 1.8973 0.06956 2.125 0.07835 0.22773 0.0088 0.8957 0.03365 1.4844 0.05525l1.0703 0.03926 1.7734 1.7731c0.97538 0.9752 1.7664 1.7726 1.7578 1.7719-9e-3 -6.38e-4 -0.0719-0.0467-0.14062-0.10237z" fill-opacity="0"/>
 <g id="g330" transform="translate(0 -25.667)">
  <path id="path238" d="m192.9 24.364c-0.50778-0.41114-1.2082-0.88754-1.8359-1.2488-0.25974-0.14948-0.88545-0.46762-1.1797-0.59981-2.0524-0.92206-4.643-1.5055-8.1875-1.8439-0.18047-0.01723-0.34922-0.03395-0.375-0.03715-0.12034-0.01495 0.20975-0.0079 0.96875 0.02066 0.45546 0.01715 1.4496 0.15299 2.3906 0.1873 0.94753 0.07955 1.4238 0.13014 1.6953 0.15648 0.23555 0.05958 0.75508 0.13131 1.5703 0.34041 0.52941 0.14544 0.98569 0.34649 1.2969 0.49629l1.9453 0.96058c0.97538 0.9752 1.8602 1.671 1.8516 1.6704-9e-3 -6.38e-4 -0.0719-0.0467-0.14062-0.10237z" fill="#a0a0a0"/>
 </g>
</svg>
